C:\GBW_MyPrograms\KinderuniversiteitApp\Resultaten\Ellis\Olaf\Olaf_v5.mot
version=1
nRows=11
nColumns=29
inDegrees=yes
endheader
                time	         pelvis_tilt	           pelvis_tx	           pelvis_ty	       hip_flexion_l	       hip_flexion_r	        knee_angle_l	        knee_angle_r	       ankle_angle_l	       ankle_angle_r	    lumbar_extension	hamstrings_r/activation	bifemsh_r/activation	glut_max_r/activation	iliopsoas_r/activation	rect_fem_r/activation	  vasti_r/activation	gastroc_r/activation	 soleus_r/activation	tib_ant_r/activation	hamstrings_l/activation	bifemsh_l/activation	glut_max_l/activation	iliopsoas_l/activation	rect_fem_l/activation	  vasti_l/activation	gastroc_l/activation	 soleus_l/activation	tib_ant_l/activation	
          0.20000000	         -8.17439398	          0.26589196	          0.91260474	         13.71302450	         18.76298342	        -14.35716582	        -23.87832225	         11.12832761	         13.62337318	         -6.06433285	          0.08890311	          0.20439422	          0.90806576	          0.21330090	          0.98296892	          0.96679681	          0.18868829	          0.15850087	          0.91404734	          0.45802366	          0.87405026	          0.44493541	          0.87444215	          0.32721217	          0.41181355	          0.96469360	          0.81666257	          0.17740713	
          0.20200000	         -8.20319464	          0.26599714	          0.91260363	         13.78907166	         18.74469185	        -14.44706709	        -23.77408185	         11.10238128	         13.66037213	         -6.02922040	          0.08603562	          0.19780108	          0.91888128	          0.20642033	          0.98497158	          0.97070296	          0.18260168	          0.15338833	          0.88456281	          0.44325947	          0.88886336	          0.43058295	          0.88921146	          0.31665758	          0.39852933	          0.94084092	          0.79031951	          0.17168494	
          0.20400000	         -8.23624040	          0.26609963	          0.91259365	         13.87845904	         18.72069233	        -14.55409244	        -23.65155213	         11.08373135	         13.69404691	         -5.98891728	          0.08326069	          0.19142062	          0.92842439	          0.19976171	          0.98673854	          0.97414956	          0.17671143	          0.14844091	          0.85602914	          0.42896561	          0.90193230	          0.41669347	          0.90224277	          0.30644348	          0.38567365	          0.91049529	          0.76482609	          0.16614737	
          0.20600000	         -8.27305804	          0.26619965	          0.91257480	         13.98051099	         18.69064036	        -14.67795614	        -23.51114266	         11.07272410	         13.72407213	         -5.94400278	          0.08057534	          0.18524598	          0.93684478	          0.19331789	          0.98829753	          0.97719068	          0.17101119	          0.14365361	          0.82841578	          0.41513091	          0.91346048	          0.40325204	          0.91374026	          0.29655888	          0.37323266	          0.88112640	          0.74015492	          0.16078845	
          0.20800000	         -8.31297624	          0.26629740	          0.91254738	         14.09429933	         18.65398865	        -14.81829862	        -23.35331014	         11.06960712	         13.75063270	         -5.89529926	          0.07797669	          0.17927053	          0.94427455	          0.18708193	          0.98967298	          0.97987401	          0.16549484	          0.13902651	          0.80169311	          0.40174164	          0.92361519	          0.39024421	          0.92388312	          0.28699317	          0.36119299	          0.85270419	          0.71627952	          0.15560243	
          0.21000000	         -8.35532851	          0.26639304	          0.91251172	         14.21889186	         18.61024041	        -14.97471929	        -23.17857638	         11.07444769	         13.77296924	         -5.84363067	          0.07546202	          0.17348785	          0.95083023	          0.18104714	          0.99088646	          0.98224166	          0.16015646	          0.24031549	          0.77583240	          0.38878386	          0.89384633	          0.37765599	          0.93280976	          0.27773605	          0.34954171	          0.82519847	          0.69317423	          0.15058373	
          0.21200000	         -8.39904218	          0.26648673	          0.91246908	         14.35281866	         18.55843759	        -15.14656612	        -22.98706971	         11.08697888	         13.78318129	         -5.79032979	          0.07302869	          0.16789171	          0.95661465	          0.17520702	          0.99195699	          0.98433076	          0.15499030	          0.32968903	          0.75080588	          0.37624376	          0.86501979	          0.36547386	          0.90272795	          0.26877757	          0.33826628	          0.79857982	          0.67081421	          0.14572695	
          0.21400000	         -8.44298121	          0.26657858	          0.91242099	         14.49447262	         18.49755945	        -15.33303237	        -22.77866939	         11.10675262	         13.77410877	         -5.73680922	          0.07067423	          0.16247610	          0.96171856	          0.16955528	          0.99290134	          0.98617407	          0.14999080	          0.40854828	          0.72658664	          0.36410794	          0.83712003	          0.35368472	          0.87361130	          0.26010812	          0.32735457	          0.77281971	          0.64917543	          0.14102689	
          0.21600000	         -8.48623014	          0.30310306	          0.91236866	         14.64246824	         18.42690209	        -15.53329577	        -22.55352299	         11.13330825	         13.74501940	         -5.68420669	          0.06839642	          0.15723520	          0.96622200	          0.16408587	          0.99373431	          0.98780052	          0.14515259	          0.47813011	          0.70314866	          0.35236342	          0.81011898	          0.34227589	          0.84543255	          0.25171838	          0.31679486	          0.74789048	          0.62823464	          0.13647849	
          0.21800000	         -8.52782137	          0.31676054	          0.91231342	         14.79534617	         18.34579807	        -15.74649503	        -22.31221943	         11.16616938	         13.69914684	         -5.63372349	          0.06619386	          0.15216336	          0.97019563	          0.15879289	          0.99446892	          0.98923562	          0.14047047	          0.53952591	          0.68046672	          0.34099761	          0.78398825	          0.33123510	          0.81816217	          0.24359933	          0.30657580	          0.72376536	          0.60796933	          0.13207686	
          0.22000000	         -8.56656589	          0.32823768	          0.91225698	         14.95138162	         18.25342897	        -15.97171041	        -22.05577414	         11.20482639	         13.64111224	         -5.58683694	          0.06407309	          0.14725515	          0.97370177	          0.15367065	          0.99511661	          0.99050188	          0.13593940	          0.59369873	          0.65851646	          0.32999833	          0.75870000	          0.32055048	          0.79177112	          0.23574226	          0.29668639	          0.70041841	          0.58835770	          0.12781729	
